<?xml version="1.0" encoding="UTF-8"?>
<svg id="Layer_2" data-name="Layer 2" xmlns="http://www.w3.org/2000/svg" viewBox="0 0 152.94 45.9">
  <defs>
    <style>
      .cls-1 {
        fill: #1c1512;
      }
    </style>
  </defs>
  <g id="Layer_1-2" data-name="Layer 1">
    <g>
      <path class="cls-1" d="m36.54,2.22H11.1c-.68,0-1.16-.04-1.44-.12-.28-.08-.42-.5-.42-1.26v-.84H2.76v4.98c0,.8.27,1.5.81,2.1.54.6,1.22,1.06,2.04,1.38.82.32,1.63.48,2.43.48h16.2c-.1.15-.19.29-.3.45-.8,1.22-1.79,2.72-2.97,4.5-1.18,1.78-2.47,3.74-3.87,5.88-1.4,2.14-2.84,4.34-4.32,6.6-1.48,2.26-2.91,4.47-4.29,6.63-1.38,2.16-2.66,4.14-3.84,5.94-1.18,1.8-2.18,3.31-3,4.53-.82,1.22-1.37,2.03-1.65,2.43h36.9v-6.72H12.02L36.54,2.22Z"/>
      <path class="cls-1" d="m60.84.42l-19.32,45.48h6.84l4.22-10.26h15.93l4.03,10.26h8.04L61.26.42h-.42Zm-5.79,29.22l5.69-13.82,5.42,13.82h-11.11Z"/>
      <polygon class="cls-1" points="108.6 2.22 97.55 23.77 86.28 2.22 77.7 2.22 93.84 31.74 93.84 45.9 100.8 45.9 100.8 31.74 117.18 2.22 108.6 2.22"/>
      <path class="cls-1" d="m144.9,45.9h8.04L133.62.42h-.42l-19.32,45.48h6.84l4.22-10.26h15.93l4.03,10.26Zm-17.49-16.26l5.69-13.82,5.42,13.82h-11.11Z"/>
    </g>
  </g>
</svg>