<svg xmlns="http://www.w3.org/2000/svg" width="434.577" height="123.871" viewBox="0 0 434.577 123.871"><path d="M427.83 60.282c-3.179 1.008-6.293 2.506-9.548 2.938-13.349 1.773-26.732 3.293-40.12 4.75-4.764.519-9.579.54-14.362.9a34.568 34.568 0 0 0-6.371.955c-8.371 2.26-16.7 4.66-25.054 7-.927.259-1.869.472-2.811.677-6.354 1.383-7.107.929-9.14-5.485-.693-2.187-1.578-2.582-3.748-1.34-5.014 2.869-9.937 5.894-14.962 8.742a37.315 37.315 0 0 1-6.495 3.014 2.627 2.627 0 0 1-3.6-3.044 32.773 32.773 0 0 1 1.607-4.714c.285-.868.456-1.773.679-2.661-1.073.261-2.328.254-3.183.835-2.584 1.756-4.9 3.908-7.526 5.6a126.819 126.819 0 0 1-12.407 7.311c-3.3 1.625-4.344.868-5.838-2.762-1.473-3.58-1.6-3.654-5.078-1.7-5.036 2.837-10.142 5.57-15.029 8.647-5.688 3.582-12.073 4.756-18.479 5.833-3.694.621-6.149-1.273-6.385-5.1-.187-3.05.5-6.16.866-9.235.226-1.872-.632-2.69-2.519-2.1a40.971 40.971 0 0 0-5.424 2c-7.17 3.423-14.261 7.011-21.46 10.371a27.259 27.259 0 0 1-6.8 2.078c-3.72.645-6.6-1.054-8.581-4.124-1.761-2.725-3.991-3.1-6.849-2.025-4.273 1.6-8.571 3.15-12.9 4.582a30.092 30.092 0 0 1-6.941 1.708c-3.944.308-5.576-1.514-6.162-5.422-.292-1.944 1.808-4.87-.895-5.594-1.537-.411-3.732 1.694-5.651 2.625a60.437 60.437 0 0 1-7.154 3.306c-2.079.689-3.692-.87-3.778-3.141a4.847 4.847 0 0 1 .016-.723c.2-1.865.408-3.729.613-5.594-2.782.048-3.827 2.508-5.441 4.075-2.763 2.684-5.3 5.6-7.931 8.418a24.618 24.618 0 0 1-2.446 2.651c-1.664 1.327-3.339 3.044-5.767 2.052-1.322-.541-.731-2.9 1.057-5.781 1.931-3.113 5.548-5.323 5.277-9.642q-4.637 3.248-9.275 6.494c-6.319 4.4-12.565 8.913-19.01 13.122a23.885 23.885 0 0 1-7.322 2.981c-4.063.993-6.764-.9-6.892-5.068-.086-2.794.74-5.647 1.389-8.42.322-1.377 1.247-2.6 1.753-3.95.627-1.667.33-2.793-1.837-2.768-.571.007-1.148-.57-1.722-.878.4-.519.705-1.208 1.23-1.532 5.526-3.4 11.1-6.734 16.639-10.115 6.332-3.865 11.21-1.589 12.328 5.837.213 1.417.072 2.884.159 4.324.119 1.984 1.2 2.633 2.739 1.46 4.4-3.36 8.717-6.832 13.044-10.288.94-.75 1.728-1.7 2.689-2.412 2.345-1.746 3.581-1.37 5.238 2.055.837 1.733 1.5 2.151 3.148 1.039 2.389-1.616 4.835-3.166 7.369-4.536.717-.388 2.3-.416 2.654.038a4.287 4.287 0 0 1 .8 3.187c-.488 2.094-1.535 4.051-2.152 6.124-.247.832-.206 2.5.122 2.614a4.365 4.365 0 0 0 3.222.046 264.026 264.026 0 0 0 12.951-7.861c2.218-1.432 4.167-3.279 6.38-4.72.668-.434 2.364-.494 2.627-.094.552.842.96 2.369.545 3.136a44.624 44.624 0 0 1-3.836 5.174c-2.013 2.688-4.138 5.307-5.941 8.131a2.058 2.058 0 0 0 2.3 3.157c3.523-.755 7-1.752 10.471-2.717 1.155-.32 2.219-1.094 3.379-1.249 5.438-.726 9.188-3.518 11.864-8.34 1.96-3.53 5.57-5.237 9.449-6.133 2.715-.627 5.288.269 6.324 2.273a6.081 6.081 0 0 1-.593 6.784c-1.953 2.676-4.924 3.742-7.728 5.136-.621.309-.822 1.465-1.216 2.231.811.379 1.657 1.133 2.425 1.06a18.4 18.4 0 0 0 4.882-1.174c10.328-4.016 20.627-8.105 30.928-12.189a5.586 5.586 0 0 0 1.882-1.055c4.991-4.928 11.342-7.944 16.914-12.053a27.067 27.067 0 0 1 6.182-3.583c4.206-1.615 7.647.262 8.835 4.656 1.269 4.691.154 9.076-2.186 13.2-1.185 2.089-2.5 4.106-3.673 6.2a1.354 1.354 0 0 0 .191 1.293 1.456 1.456 0 0 0 1.328.011q5.317-3.055 10.571-6.222a20.4 20.4 0 0 0 6.869-7.28c2.764-4.606 6.21-8.609 11.11-11.084a15.6 15.6 0 0 1 4.013-1.458c1.707-.326 3.364 1.813 2.518 3.328a19.415 19.415 0 0 1-3.469 4.518c-2.433 2.329-5.188 4.323-7.6 6.667a26.526 26.526 0 0 0-3.937 5.075 2.968 2.968 0 0 0 .052 2.669c.286.428 1.792.467 2.476.126a65.064 65.064 0 0 0 7.544-4.254c5.377-3.643 10.636-7.462 15.952-11.2a11.539 11.539 0 0 1 3.036-1.907c1.514-.446 3.561-1.116 4.656-.468 1.664.983.683 3.011.075 4.59a6.2 6.2 0 0 0-.3.657c-.605 2.4-3.519 4.151-2.012 7.143 2.453-.876 4.995-1.565 7.339-2.671 4.136-1.952 8.1-4.27 12.232-6.227 3.83-1.813 5.894-.2 4.973 3.646a5.548 5.548 0 0 0-.192 1.427c.06 2.222.993 3.288 3.1 2.873 5.19-1.022 10.344-2.242 15.481-3.508 1.621-.4 3.127-1.244 4.717-1.8 2.633-.915 4.8-2.032 4.749-5.442-.03-2.246 1.818-3.374 3.765-3.824a45.274 45.274 0 0 1 6.408-.832c2.086-.175 3.931.482 4.706 2.568 1.084 2.916 3.4 3.1 5.886 2.937 9.61-.647 19.211-1.445 28.827-1.992 6.226-.354 12.47-.431 18.707-.484 1.116-.009 2.238.7 3.357 1.08Zm-181.71 3.212a39.29 39.29 0 0 0-5.668 4.448c-2.1 2.229-3.593 5.029-5.483 7.478a9.469 9.469 0 0 0-2.1 8.092c.546 2.584 2.424 3.461 4.839 2.158a30.5 30.5 0 0 0 13.246-13.869 13.7 13.7 0 0 0 1.016-5.6c.038-2.487-2.068-3.769-5.85-2.706M79.948 96.201a71.277 71.277 0 0 0 8.28-5.444 13.993 13.993 0 0 0 5.063-10.741 3.982 3.982 0 0 0-1.339-3.015 3.554 3.554 0 0 0-3.259.072c-5.047 3.72-9.548 8.016-12.452 13.694a11.008 11.008 0 0 0-.924 3.438c-.29 2.036 1.14 3.121 4.631 2M62.229 8.371c-13.024 5-23.831 10.105-32.621 18.775-11.454 11.3-15.455 24.291-11.062 40.163 2.525 9.126 8.25 16.111 13.078 23.746a5.119 5.119 0 0 0 6.967 2.009 1.307 1.307 0 0 1 1.184.438 1.222 1.222 0 0 1-.357 1.148c-2.557 1.463-2.183 3.485-1.072 5.575.9 1.7 2.027 3.275 2.948 4.964 3.654 6.7 2.432 11.272-4.288 15.089-6.1 3.463-12.845 4.105-19.621 3.258-4.721-.591-9.62-.909-13.909-3.442-3.822-2.257-4.551-4.657-1.9-8.3a22.371 22.371 0 0 1 6.134-5.986c4.92-2.984 10.128-5.51 15.3-8.055 4.434-2.18 4.921-3.35 2.522-7.73-3.455-6.322-7.39-12.422-10.325-18.98a37.252 37.252 0 0 1 .238-32.14c5.069-10.929 13.445-18.686 23.542-24.738C47.873 8.84 56.912 3.776 67.154 1.38c5.935-1.389 11.9-2 17.881-.541s10.516 4.63 12.175 11.012c.984 3.786.583 7.407-2.1 10.144a62.146 62.146 0 0 1-9.95 8.252c-3.371 2.235-6.58 1.23-8.458-2.364a20.673 20.673 0 0 1-1.528-6.168 2.063 2.063 0 0 1 1.077-1.63 2.656 2.656 0 0 1 1.97.333c.612.329 1.022 1.01 1.575 1.47 3.855 3.212 4.835 3.184 8.451-.3a18.338 18.338 0 0 0 2.414-2.675c2.076-3 1.769-6.039-1.221-8.27-4.134-3.085-8.827-5.188-14.1-4.583-5 .574-9.928 1.734-13.11 2.313M31.158 117.589c1.252-.49 2.184-.77 3.039-1.2 3.579-1.814 4.476-3.984 2.782-7.661a50.993 50.993 0 0 0-4.055-6.805c-1.362-2.043-3.317-2.519-5.7-1.86-7.366 2.038-13.291 6.612-19.225 11.069-2.317 1.742-1.473 4.365 1.48 5.529 7.234 2.851 14.612 2.423 21.676.928"></path><path d="M50.377 88.73c1.105-.253 2.035-.51 2.982-.667a10.629 10.629 0 0 1 1.685-.023 9.766 9.766 0 0 1-1.231.69c-2.236.871-4.476 1.736-6.736 2.542a4.191 4.191 0 0 1-1.387 0c.28-.325.5-.785.851-.949 1.307-.605 2.659-1.112 3.836-1.591M427.708 60.456c2.187-.459 4.164-2.465 6.6-1.032 1.032.607-1.048 1.323-3.65 1.08-.941-.089-1.885-.148-2.827-.221Z"></path></svg>